<?xml version="1.0" encoding="UTF-8" standalone="no"?>
<svg
   xmlns:dc="http://purl.org/dc/elements/1.1/"
   xmlns:cc="http://creativecommons.org/ns#"
   xmlns:rdf="http://www.w3.org/1999/02/22-rdf-syntax-ns#"
   xmlns:svg="http://www.w3.org/2000/svg"
   xmlns="http://www.w3.org/2000/svg"
   xmlns:sodipodi="http://sodipodi.sourceforge.net/DTD/sodipodi-0.dtd"
   xmlns:inkscape="http://www.inkscape.org/namespaces/inkscape"
   viewBox="0 0 8.4666665 8.4666669"
   version="1.1"
   x="0px"
   y="0px"
   id="svg66"
   sodipodi:docname="db-primary.svg"
   inkscape:version="0.92.3 (2405546, 2018-03-11)">
  <metadata
     id="metadata72">
    <rdf:RDF>
      <cc:Work
         rdf:about="">
        <dc:format>image/svg+xml</dc:format>
        <dc:type
           rdf:resource="http://purl.org/dc/dcmitype/StillImage" />
        <dc:title></dc:title>
      </cc:Work>
    </rdf:RDF>
  </metadata>
  <defs
     id="defs70" />
  <sodipodi:namedview
     pagecolor="#ffffff"
     bordercolor="#666666"
     borderopacity="1"
     objecttolerance="10"
     gridtolerance="10"
     guidetolerance="10"
     inkscape:pageopacity="0"
     inkscape:pageshadow="2"
     inkscape:window-width="2160"
     inkscape:window-height="1346"
     id="namedview68"
     showgrid="false"
     inkscape:zoom="78.839617"
     inkscape:cx="5.5173313"
     inkscape:cy="4.2147221"
     inkscape:window-x="-11"
     inkscape:window-y="-11"
     inkscape:window-maximized="1"
     inkscape:current-layer="svg66" />
  <g
     id="g4601"
     transform="matrix(0.06912283,0,0,0.06912283,4.6524245,4.0299875)">
    <path
       id="path2-9"
       d="m -6.0629947,-47.058192 c -27.6140003,0 -50.0000003,3.214 -50.0000003,7.179 v 21.886 c 0,3.964 22.386,7.179 50.0000003,7.179 27.6119997,0 49.9999997,-3.215 49.9999997,-7.179 v -21.886 c 0,-3.965 -22.388,-7.179 -49.9999997,-7.179 z"
       inkscape:connector-curvature="0"
       style="fill:#2a69ff;fill-opacity:1" />
    <g
       transform="translate(-56.062995,-47.058192)"
       id="g6"
       style="fill:#2a69ff;fill-opacity:1">
      <path
         id="path4-0"
         d="M 50,46.24 C 22.386,46.24 0,43.025 0,39.061 v 21.885 c 0,3.964 22.386,7.18 50,7.18 27.612,0 50,-3.216 50,-7.18 V 39.061 c 0,3.964 -22.388,7.179 -50,7.179 z"
         inkscape:connector-curvature="0"
         style="fill:#2a69ff;fill-opacity:1" />
    </g>
    <g
       transform="translate(-56.062995,-47.058192)"
       id="g10"
       style="fill:#2a69ff;fill-opacity:1">
      <path
         id="path8-7"
         d="M 50,78.116 C 22.386,78.116 0,74.9 0,70.935 V 92.821 C 0,96.787 22.386,100 50,100 c 27.612,0 50,-3.213 50,-7.179 V 70.936 c 0,3.964 -22.388,7.18 -50,7.18 z"
         inkscape:connector-curvature="0"
         style="fill:#2a69ff;fill-opacity:1" />
    </g>
  </g>
</svg>
