<?xml version="1.0" encoding="UTF-8" standalone="no"?>
<svg
   xmlns:dc="http://purl.org/dc/elements/1.1/"
   xmlns:cc="http://creativecommons.org/ns#"
   xmlns:rdf="http://www.w3.org/1999/02/22-rdf-syntax-ns#"
   xmlns:svg="http://www.w3.org/2000/svg"
   xmlns="http://www.w3.org/2000/svg"
   xmlns:sodipodi="http://sodipodi.sourceforge.net/DTD/sodipodi-0.dtd"
   xmlns:inkscape="http://www.inkscape.org/namespaces/inkscape"
   viewBox="0 0 8.4666665 8.4666669"
   version="1.1"
   x="0px"
   y="0px"
   id="svg66"
   sodipodi:docname="compass-primary.svg"
   inkscape:version="0.92.3 (2405546, 2018-03-11)">
  <metadata
     id="metadata72">
    <rdf:RDF>
      <cc:Work
         rdf:about="">
        <dc:format>image/svg+xml</dc:format>
        <dc:type
           rdf:resource="http://purl.org/dc/dcmitype/StillImage" />
        <dc:title></dc:title>
      </cc:Work>
    </rdf:RDF>
  </metadata>
  <defs
     id="defs70" />
  <sodipodi:namedview
     pagecolor="#ffffff"
     bordercolor="#666666"
     borderopacity="1"
     objecttolerance="10"
     gridtolerance="10"
     guidetolerance="10"
     inkscape:pageopacity="0"
     inkscape:pageshadow="2"
     inkscape:window-width="2160"
     inkscape:window-height="1346"
     id="namedview68"
     showgrid="false"
     inkscape:zoom="78.839617"
     inkscape:cx="6.5555424"
     inkscape:cy="3.8342869"
     inkscape:window-x="-11"
     inkscape:window-y="-11"
     inkscape:window-maximized="1"
     inkscape:current-layer="svg66" />
  <g
     transform="matrix(0.08192952,0.08192952,-0.08192952,0.08192952,4.8379194,-4.5678183)"
     id="g14"
     style="fill:#2a69ff;fill-opacity:1">
    <path
       inkscape:connector-curvature="0"
       d="m 53.1,28.3 c 0,-0.6 -0.3,-1.1 -0.6,-1.6 2.6,-1 4.5,-3.5 4.5,-6.5 0,-3.8 -3.1,-6.9 -6.9,-6.9 -3.8,0 -6.9,3.1 -6.9,6.9 0,3.1 2.1,5.8 4.9,6.6 -0.3,0.4 -0.5,0.9 -0.5,1.4 -15,1.2 -26.9,13.8 -26.9,29.1 0,16.1 13.1,29.2 29.2,29.2 16.1,0 29.2,-13.1 29.2,-29.2 0.1,-15 -11.3,-27.4 -26,-29 z m -7.4,-8 c 0,-2.4 2,-4.4 4.4,-4.4 2.4,0 4.4,2 4.4,4.4 0,2.4 -2,4.4 -4.4,4.4 -2.4,0 -4.4,-2 -4.4,-4.4 z m 4.3,61 c -13.2,0 -23.9,-10.7 -23.9,-23.9 0,-13.2 10.7,-24 23.9,-24 13.2,0 23.9,10.7 23.9,23.9 0,13.2 -10.7,24 -23.9,24 z"
       id="path2"
       style="fill:#2a69ff;fill-opacity:1" />
    <path
       inkscape:connector-curvature="0"
       d="M 56.9,54.9 C 56.8,54.7 56.6,54.5 56.5,54.3 56.2,53.6 55.7,53 55.1,52.4 54.5,51.8 53.9,51.4 53.2,51 53.1,50.9 52.9,50.8 52.7,50.7 L 39.7,44 c -0.4,-0.2 -0.7,-0.3 -1.1,-0.3 -0.9,0 -1.7,0.5 -2.1,1.2 -0.4,0.7 -0.5,1.6 -0.1,2.4 l 6.7,13 c 0.1,0.2 0.2,0.3 0.3,0.5 0.3,0.7 0.8,1.4 1.4,1.9 0.6,0.6 1.2,1 1.9,1.4 0.2,0.2 0.4,0.3 0.6,0.4 l 13,6.7 c 0.4,0.2 0.7,0.3 1.1,0.3 0.9,0 1.7,-0.5 2.1,-1.2 0.4,-0.7 0.5,-1.6 0.1,-2.4 z m -7.4,6.3 v 0 c -0.8,-0.1 -1.6,-0.5 -2.2,-1.1 -1.5,-1.5 -1.5,-3.8 0,-5.3 1.5,-1.4 3.8,-1.4 5.3,0 0.6,0.6 1,1.4 1.1,2.2 v 0 c 0.1,1.1 -0.2,2.2 -1.1,3.1 -0.7,0.7 -1.6,1.1 -2.6,1.1 -0.2,0 -0.3,0 -0.5,0 z m 2.9,3.1 c 1,-0.4 1.9,-0.9 2.6,-1.7 0.8,-0.8 1.3,-1.7 1.7,-2.6 l 4.6,8.9 z"
       id="path4"
       style="fill:#2a69ff;fill-opacity:1" />
    <path
       inkscape:connector-curvature="0"
       d="M 70.9,56.6 H 68 c -0.4,0 -0.8,0.3 -0.8,0.8 0,0.4 0.3,0.8 0.8,0.8 h 2.9 c 0.4,0 0.8,-0.3 0.8,-0.8 0,-0.4 -0.4,-0.8 -0.8,-0.8 z"
       id="path6"
       style="fill:#2a69ff;fill-opacity:1" />
    <path
       inkscape:connector-curvature="0"
       d="m 32.4,56.6 h -2.9 c -0.4,0 -0.8,0.3 -0.8,0.8 0,0.4 0.3,0.8 0.8,0.8 h 2.9 c 0.4,0 0.8,-0.3 0.8,-0.8 0,-0.4 -0.3,-0.8 -0.8,-0.8 z"
       id="path8"
       style="fill:#2a69ff;fill-opacity:1" />
    <path
       inkscape:connector-curvature="0"
       d="m 50.2,40.4 c 0.4,0 0.8,-0.3 0.8,-0.8 v -2.9 c 0,-0.4 -0.3,-0.8 -0.8,-0.8 -0.4,0 -0.8,0.3 -0.8,0.8 v 2.9 c 0.1,0.4 0.4,0.8 0.8,0.8 z"
       id="path10"
       style="fill:#2a69ff;fill-opacity:1" />
    <path
       inkscape:connector-curvature="0"
       d="m 50.2,74.4 c -0.4,0 -0.8,0.3 -0.8,0.8 v 2.9 c 0,0.4 0.3,0.8 0.8,0.8 0.4,0 0.8,-0.3 0.8,-0.8 v -2.9 c 0,-0.4 -0.4,-0.8 -0.8,-0.8 z"
       id="path12"
       style="fill:#2a69ff;fill-opacity:1" />
  </g>
</svg>
