<?xml version="1.0" encoding="UTF-8" standalone="no"?>
<!-- Created with Inkscape (http://www.inkscape.org/) -->

<svg
   xmlns:dc="http://purl.org/dc/elements/1.1/"
   xmlns:cc="http://creativecommons.org/ns#"
   xmlns:rdf="http://www.w3.org/1999/02/22-rdf-syntax-ns#"
   xmlns:svg="http://www.w3.org/2000/svg"
   xmlns="http://www.w3.org/2000/svg"
   xmlns:sodipodi="http://sodipodi.sourceforge.net/DTD/sodipodi-0.dtd"
   xmlns:inkscape="http://www.inkscape.org/namespaces/inkscape"
   width="94.153915mm"
   height="94.154625mm"
   viewBox="0 0 94.153915 94.154625"
   version="1.1"
   id="svg8"
   inkscape:version="0.92.2 (5c3e80d, 2017-08-06)">
  <defs
     id="defs2">
    <clipPath
       id="clipPath4558-5"
       clipPathUnits="userSpaceOnUse">
      <path
         inkscape:connector-curvature="0"
         id="path4556-6"
         d="M 0,500 H 1024 V 0 H 0 Z" />
    </clipPath>
  </defs>
  <sodipodi:namedview
     id="base"
     pagecolor="#ffffff"
     bordercolor="#666666"
     borderopacity="1.0"
     inkscape:pageopacity="0.0"
     inkscape:pageshadow="2"
     inkscape:zoom="1.979899"
     inkscape:cx="177.44007"
     inkscape:cy="168.50454"
     inkscape:document-units="mm"
     inkscape:current-layer="g4512"
     showgrid="false"
     fit-margin-top="0"
     fit-margin-left="0"
     fit-margin-right="0"
     fit-margin-bottom="0"
     inkscape:window-width="2160"
     inkscape:window-height="1346"
     inkscape:window-x="2869"
     inkscape:window-y="-11"
     inkscape:window-maximized="1" />
  <metadata
     id="metadata5">
    <rdf:RDF>
      <cc:Work
         rdf:about="">
        <dc:format>image/svg+xml</dc:format>
        <dc:type
           rdf:resource="http://purl.org/dc/dcmitype/StillImage" />
        <dc:title></dc:title>
      </cc:Work>
    </rdf:RDF>
  </metadata>
  <g
     inkscape:label="Layer 1"
     inkscape:groupmode="layer"
     id="layer1"
     transform="translate(-59.512346,-106.29174)">
    <g
       transform="matrix(0.35277777,0,0,-0.35277777,-442.18174,359.49206)"
       inkscape:label="FB-fLogo_2016"
       id="g4512">
      <g
         transform="translate(1298.5717,330.28552)"
         id="g4552">
        <g
           clip-path="url(#clipPath4558-5)"
           id="g4554">
          <g
             transform="translate(375.7163,120.5527)"
             id="g4560">
            <path
               inkscape:connector-curvature="0"
               id="path4562"
               style="fill:#3c5a99;fill-opacity:1;fill-rule:nonzero;stroke:none"
               d="m 0,0 c 8.134,0 14.73,6.596 14.73,14.73 v 237.434 c 0,8.137 -6.596,14.731 -14.73,14.731 h -237.433 c -8.137,0 -14.73,-6.594 -14.73,-14.731 V 14.73 c 0,-8.134 6.593,-14.73 14.73,-14.73 z" />
          </g>
          <g
             transform="translate(307.7046,120.5527)"
             id="g4564">
            <path
               inkscape:connector-curvature="0"
               id="path4566"
               style="fill:#ffffff;fill-opacity:1;fill-rule:nonzero;stroke:none"
               d="m 0,0 v 103.355 h 34.693 l 5.194,40.28 H 0 v 25.717 c 0,11.662 3.238,19.609 19.962,19.609 l 21.33,0.01 v 36.026 c -3.69,0.49 -16.351,1.587 -31.081,1.587 -30.753,0 -51.806,-18.771 -51.806,-53.244 v -29.705 h -34.781 v -40.28 h 34.781 L -41.595,0 Z" />
          </g>
        </g>
      </g>
    </g>
  </g>
</svg>
