<?xml version="1.0" encoding="UTF-8" standalone="no"?>
<svg
   xmlns:dc="http://purl.org/dc/elements/1.1/"
   xmlns:cc="http://creativecommons.org/ns#"
   xmlns:rdf="http://www.w3.org/1999/02/22-rdf-syntax-ns#"
   xmlns:svg="http://www.w3.org/2000/svg"
   xmlns="http://www.w3.org/2000/svg"
   xmlns:sodipodi="http://sodipodi.sourceforge.net/DTD/sodipodi-0.dtd"
   xmlns:inkscape="http://www.inkscape.org/namespaces/inkscape"
   id="Logo_FIXED"
   data-name="Logo — FIXED"
   viewBox="0 0 400 400"
   version="1.1"
   sodipodi:docname="twitter.svg"
   inkscape:version="0.92.2 (5c3e80d, 2017-08-06)">
  <metadata
     id="metadata15">
    <rdf:RDF>
      <cc:Work
         rdf:about="">
        <dc:format>image/svg+xml</dc:format>
        <dc:type
           rdf:resource="http://purl.org/dc/dcmitype/StillImage" />
      </cc:Work>
    </rdf:RDF>
  </metadata>
  <sodipodi:namedview
     pagecolor="#ffffff"
     bordercolor="#666666"
     borderopacity="1"
     objecttolerance="10"
     gridtolerance="10"
     guidetolerance="10"
     inkscape:pageopacity="0"
     inkscape:pageshadow="2"
     inkscape:window-width="2160"
     inkscape:window-height="1346"
     id="namedview13"
     showgrid="false"
     inkscape:zoom="2.36"
     inkscape:cx="192.34772"
     inkscape:cy="196.19077"
     inkscape:window-x="-11"
     inkscape:window-y="-11"
     inkscape:window-maximized="1"
     inkscape:current-layer="Logo_FIXED" />
  <defs
     id="defs4">
    <style
       id="style2">.cls-1{fill:none;}.cls-2{fill:#1da1f2;}</style>
  </defs>
  <title
     id="title6">Twitter_Logo_Blue</title>
  <rect
     class="cls-1"
     width="400"
     height="400"
     id="rect8" />
  <path
     class="cls-2"
     d="m 125.75749,362.58592 c 151.01419,0 233.61258,-125.11415 233.61258,-233.61258 0,-3.55365 0,-7.09129 -0.24011,-10.61293 A 167.05364,167.05364 0 0 0 400.093,75.860658 163.88417,163.88417 0 0 1 352.93508,88.778662 82.390294,82.390294 0 0 0 389.03186,43.365555 164.54048,164.54048 0 0 1 336.89563,63.294817 82.182197,82.182197 0 0 0 196.97459,138.17762 233.10034,233.10034 0 0 1 27.759946,52.393751 82.16619,82.16619 0 0 0 53.179761,161.99669 81.493877,81.493877 0 0 1 15.91444,151.71991 c 0,0.33616 0,0.68832 0,1.04049 a 82.134175,82.134175 0 0 0 65.870616,80.4854 81.9741,81.9741 0 0 1 -37.073231,1.40866 82.198205,82.198205 0 0 0 76.707655,57.0185 A 164.74857,164.74857 0 0 1 19.452084,326.88933 167.13368,167.13368 0 0 1 -0.09300004,325.70478 232.44404,232.44404 0 0 0 125.75749,362.52189"
     id="path10"
     inkscape:connector-curvature="0"
     style="fill:#1da1f2;stroke-width:1.60074401" />
</svg>
